<?xml version="1.0" encoding="utf-8"?>
<!DOCTYPE svg PUBLIC "-//W3C//DTD SVG 1.1//EN" "http://www.w3.org/Graphics/SVG/1.1/DTD/svg11.dtd">
<svg xmlns="http://www.w3.org/2000/svg" xmlns:xlink="http://www.w3.org/1999/xlink" version="1.1" baseProfile="full" width="192.133" height="135.961" viewBox="0 0 192.13 135.96" enable-background="new 0 0 192.13 135.96" xml:space="preserve">
	<g>
		<rect x="6.10352e-005" y="0" fill="#3D3D3D" fill-opacity="1" stroke-width="0.2" stroke-linejoin="round" width="192.133" height="101.1"/>
		<g>
			<path fill="#FFFFFF" fill-opacity="1" stroke-width="0.2" stroke-linejoin="round" d="M 129.446,69.0956L 133.533,58.762L 145.331,58.762L 139.732,43.0865L 146.735,25.3765L 166.794,78.6343L 152.001,78.6343L 148.573,69.0956L 129.446,69.0956 Z "/>
			<path fill="#FFFFFF" fill-opacity="1" stroke-width="0.2" stroke-linejoin="round" d="M 116.826,75.7236L 138.299,22.4658L 124.063,22.4659L 109.374,56.8823L 98.9287,22.4659L 87.9866,22.4659L 76.7711,56.8823L 68.8617,41.1994L 61.704,63.251L 68.9712,75.7236L 82.9812,75.7236L 93.116,44.8596L 102.779,75.7236L 116.826,75.7236 Z "/>
			<path fill="#FFFFFF" fill-opacity="1" stroke-width="0.2" stroke-linejoin="round" d="M 38.8528,57.4413L 47.6214,57.4413C 50.2776,57.4413 52.6428,57.145 54.7171,56.552L 56.9849,49.5657L 63.3226,30.04C 62.8397,29.2745 62.2884,28.5508 61.6687,27.869C 58.4146,24.267 53.6534,22.4661 47.3854,22.4661L 25.3396,22.4661L 25.3396,75.7239L 38.8528,75.7239L 38.8528,57.4413 Z M 50.4595,34.7186C 51.7305,35.9979 52.366,37.7098 52.366,39.8543C 52.366,42.0154 51.807,43.7294 50.6893,44.9963C 49.4637,46.4039 47.2074,47.1077 43.9202,47.1077L 38.8528,47.1077L 38.8528,32.7996L 43.9574,32.7996C 47.0211,32.7996 49.1885,33.4393 50.4595,34.7186 Z "/>
		</g>
	</g>
	<g>
		<path fill="#3D3D3D" fill-opacity="1" stroke-linejoin="round" stroke="#3D3D3D" stroke-opacity="1" d="M 4.04016,135.213L 1.46368,135.213L 1.46368,105.773L 11.3726,105.773C 12.7042,105.773 13.9186,105.981 15.0161,106.398C 16.1134,106.814 17.0568,107.397 17.8462,108.148C 18.6356,108.898 19.2526,109.808 19.6972,110.877C 20.1418,111.946 20.3641,113.147 20.3641,114.478C 20.3641,115.81 20.1418,117.01 19.6972,118.079C 19.2526,119.149 18.6356,120.057 17.8462,120.805C 17.0568,121.554 16.1134,122.136 15.0161,122.552C 13.9186,122.969 12.7042,123.177 11.3726,123.177L 4.04016,123.177L 4.04016,135.213 Z M 11.1644,120.887C 13.1335,120.887 14.7222,120.305 15.9302,119.14C 17.1381,117.975 17.7421,116.421 17.7421,114.478C 17.7421,112.535 17.1381,110.98 15.9302,109.813C 14.7222,108.647 13.1335,108.063 11.1644,108.063L 4.04016,108.063L 4.04016,120.887L 11.1644,120.887 Z "/>
		<path fill="#3D3D3D" fill-opacity="1" stroke-linejoin="round" stroke="#3D3D3D" stroke-opacity="1" d="M 51.5092,135.213L 48.7635,135.213L 41.0992,112.273L 33.6888,135.213L 30.9432,135.213L 23.0317,105.773L 25.7382,105.773L 32.355,131.759L 39.7264,108.772L 42.3484,108.772L 50.0128,131.759L 56.7141,105.773L 59.3426,105.773L 51.5092,135.213 Z "/>
		<rect x="62.921" y="123.431" fill="#3D3D3D" fill-opacity="1" stroke-linejoin="round" stroke="#3D3D3D" stroke-opacity="1" width="12.6155" height="2.16656"/>
		<rect x="82.036" y="105.773" fill="#3D3D3D" fill-opacity="1" stroke-linejoin="round" stroke="#3D3D3D" stroke-opacity="1" width="2.57654" height="29.4404"/>
		<path fill="#3D3D3D" fill-opacity="1" stroke-linejoin="round" stroke="#3D3D3D" stroke-opacity="1" d="M 114.847,135.213L 111.971,135.213L 95.647,109.644L 95.647,135.213L 93.0706,135.213L 93.0706,105.773L 95.9398,105.773L 112.264,131.342L 112.264,105.773L 114.847,105.773L 114.847,135.213 Z "/>
		<path fill="#3D3D3D" fill-opacity="1" stroke-linejoin="round" stroke="#3D3D3D" stroke-opacity="1" d="M 131.626,135.213L 129.043,135.213L 129.043,108.063L 119.635,108.063L 119.635,105.773L 141.034,105.773L 141.034,108.063L 131.626,108.063L 131.626,135.213 Z "/>
		<path fill="#3D3D3D" fill-opacity="1" stroke-linejoin="round" stroke="#3D3D3D" stroke-opacity="1" d="M 163.565,135.213L 145.953,135.213L 145.953,105.773L 163.565,105.773L 163.565,108.063L 148.529,108.063L 148.529,119.306L 160.897,119.306L 160.897,121.596L 148.529,121.596L 148.529,132.923L 163.565,132.923L 163.565,135.213 Z "/>
		<path fill="#3D3D3D" fill-opacity="1" stroke-linejoin="round" stroke="#3D3D3D" stroke-opacity="1" d="M 188.757,135.461C 186.701,133.353 184.84,131.258 183.174,129.176C 181.509,127.094 179.885,124.901 178.301,122.598L 172.264,122.598L 172.264,135.213L 169.687,135.213L 169.687,105.773L 179.635,105.773C 180.941,105.773 182.142,105.967 183.24,106.355C 184.337,106.743 185.28,107.299 186.07,108.021C 186.859,108.743 187.476,109.625 187.921,110.666C 188.365,111.707 188.588,112.893 188.588,114.224C 188.588,116.584 187.908,118.458 186.548,119.846C 185.188,121.234 183.37,122.095 181.092,122.429C 182.593,124.511 184.121,126.482 185.676,128.343C 187.231,130.204 188.896,132.036 190.669,133.841L 188.757,135.461 Z M 179.427,120.392C 181.37,120.392 182.946,119.85 184.154,118.766C 185.362,117.681 185.966,116.168 185.966,114.224C 185.966,112.281 185.362,110.769 184.154,109.686C 182.946,108.604 181.37,108.063 179.427,108.063L 172.264,108.063L 172.264,120.392L 179.427,120.392 Z "/>
	</g>
</svg>
