<?xml version="1.0" encoding="utf-8"?>
<!DOCTYPE svg PUBLIC "-//W3C//DTD SVG 1.1//EN" "http://www.w3.org/Graphics/SVG/1.1/DTD/svg11.dtd">
<svg xmlns="http://www.w3.org/2000/svg" xmlns:xlink="http://www.w3.org/1999/xlink" version="1.1" baseProfile="full" width="433" height="256" viewBox="0 0 433.00 256.00" enable-background="new 0 0 433.00 256.00" xml:space="preserve">
	<g>
		<path fill="#B6B6B6" fill-opacity="1" stroke-width="10" stroke-linejoin="round" stroke="#3D3D3D" stroke-opacity="1" d="M 40,68.8026L 216,68.8026C 220.418,68.8026 224,72.3843 224,76.8026L 224,156.803C 224,161.221 220.418,164.803 216,164.803L 40,164.803C 35.5817,164.803 32,161.221 32,156.803L 32,76.8026C 32,72.3843 35.5817,68.8026 40,68.8026 Z "/>
		<rect x="70.0535" y="120.197" fill="#FFFFFF" fill-opacity="1" stroke-width="10" stroke-linejoin="round" stroke="#3D3D3D" stroke-opacity="1" width="115.893" height="108.605"/>
		<path fill="#3D3D3D" fill-opacity="1" stroke-linejoin="round" stroke="#3D3D3D" stroke-opacity="1" d="M 106.741,174.663L 118.586,179.347L 118.586,192.873L 136.556,186.453L 156.857,194.481L 95.8065,217.475L 95.8065,200.518L 106.741,196.588L 106.741,174.663 Z "/>
		<line fill="none" stroke-linejoin="round" stroke="#3D3D3D" stroke-opacity="1" x1="133.87" y1="132.803" x2="160.193" y2="132.803"/>
		<path fill="#7F7F7F" fill-opacity="1" stroke-linejoin="round" d="M 99.1433,160.197L 160.193,184.811L 160.193,168.492L 120.741,151.654L 160.193,139.68L 160.193,132.803L 133.87,132.803L 134.523,133.017L 99.1433,144.094L 99.1433,160.197 Z "/>
		<rect x="63.9999" y="120.272" fill="#5E5E5E" fill-opacity="1" stroke-width="10" stroke-linejoin="round" stroke="#3D3D3D" stroke-opacity="1" width="128" height="12.5305"/>
		<rect x="69.9529" y="27.1975" fill="#FFFFFF" fill-opacity="1" stroke-width="10" stroke-linejoin="round" stroke="#3D3D3D" stroke-opacity="1" width="115.892" height="41.605"/>
		<path fill="#00C800" fill-opacity="1" stroke-width="10" stroke-linejoin="round" stroke="#64FF00" stroke-opacity="1" d="M 60.8914,90.5007C 62.3767,90.5007 63.5807,91.7047 63.5807,93.1899C 63.5807,94.6751 62.3767,95.8791 60.8914,95.8791C 59.4063,95.8791 58.2021,94.6751 58.2021,93.1899C 58.2021,91.7047 59.4063,90.5007 60.8914,90.5007 Z "/>
	</g>
	<g>
		<path fill="#3D3D3D" fill-opacity="1" stroke-linejoin="round" d="M 276.333,128L 255.693,128L 255.693,92.96L 260.493,92.96L 260.493,123.68L 276.333,123.68L 276.333,128 Z "/>
		<path fill="#3D3D3D" fill-opacity="1" stroke-linejoin="round" d="M 300.813,114.815C 300.813,119.33 299.767,122.816 297.674,125.274C 295.582,127.731 292.795,128.96 289.315,128.96C 285.73,128.96 282.911,127.691 280.855,125.154C 278.801,122.616 277.773,119.17 277.773,114.815C 277.773,110.33 278.83,106.846 280.946,104.364C 283.061,101.881 285.85,100.64 289.315,100.64C 292.795,100.64 295.582,101.878 297.674,104.353C 299.767,106.828 300.813,110.315 300.813,114.815 Z M 296.493,114.815C 296.493,111.32 295.872,108.724 294.629,107.026C 293.387,105.329 291.615,104.48 289.315,104.48C 287,104.48 285.218,105.329 283.968,107.026C 282.718,108.724 282.093,111.32 282.093,114.815C 282.093,118.195 282.718,120.758 283.968,122.503C 285.218,124.248 287,125.12 289.315,125.12C 291.6,125.12 293.368,124.263 294.618,122.548C 295.868,120.833 296.493,118.255 296.493,114.815 Z "/>
		<path fill="#3D3D3D" fill-opacity="1" stroke-linejoin="round" d="M 321.453,120.86L 321.453,106.078C 320.323,105.503 319.278,105.093 318.318,104.848C 317.358,104.603 316.401,104.48 315.446,104.48C 313.141,104.48 311.326,105.314 310.001,106.981C 308.676,108.649 308.013,111.038 308.013,114.148C 308.013,117.103 308.518,119.35 309.528,120.89C 310.538,122.43 312.173,123.2 314.433,123.2C 315.608,123.2 316.822,122.994 318.074,122.581C 319.327,122.169 320.453,121.595 321.453,120.86 Z M 306.333,132.32C 306.638,132.455 307.086,132.636 307.676,132.864C 308.266,133.091 308.936,133.305 309.686,133.505C 310.511,133.725 311.274,133.903 311.977,134.038C 312.679,134.173 313.446,134.24 314.276,134.24C 315.666,134.24 316.843,134.055 317.808,133.685C 318.773,133.315 319.526,132.798 320.066,132.133C 320.576,131.473 320.934,130.708 321.142,129.838C 321.349,128.968 321.453,127.975 321.453,126.86L 321.453,124.49C 320.253,125.525 319.076,126.289 317.921,126.781C 316.766,127.274 315.318,127.52 313.578,127.52C 310.563,127.52 308.162,126.393 306.374,124.138C 304.587,121.883 303.693,118.645 303.693,114.425C 303.693,112.22 304.002,110.264 304.619,108.556C 305.237,106.849 306.066,105.4 307.106,104.21C 308.101,103.07 309.278,102.19 310.638,101.57C 311.998,100.95 313.406,100.64 314.861,100.64C 316.236,100.64 317.426,100.8 318.431,101.12C 319.436,101.44 320.443,101.898 321.453,102.493L 321.708,101.6L 325.773,101.6L 325.773,125.053C 325.773,129.538 324.793,132.83 322.833,134.93C 320.873,137.03 317.878,138.08 313.848,138.08C 312.553,138.08 311.229,137.978 309.877,137.773C 308.524,137.568 307.263,137.293 306.093,136.948L 306.093,132.32L 306.333,132.32 Z "/>
		<path fill="#3D3D3D" fill-opacity="1" stroke-linejoin="round" d="M 353.133,114.815C 353.133,119.33 352.087,122.816 349.994,125.274C 347.902,127.731 345.115,128.96 341.635,128.96C 338.051,128.96 335.23,127.691 333.176,125.154C 331.12,122.616 330.093,119.17 330.093,114.815C 330.093,110.33 331.15,106.846 333.266,104.364C 335.381,101.881 338.17,100.64 341.635,100.64C 345.115,100.64 347.902,101.878 349.994,104.353C 352.087,106.828 353.133,110.315 353.133,114.815 Z M 348.813,114.815C 348.813,111.32 348.192,108.724 346.949,107.026C 345.707,105.329 343.935,104.48 341.635,104.48C 339.321,104.48 337.538,105.329 336.288,107.026C 335.038,108.724 334.413,111.32 334.413,114.815C 334.413,118.195 335.038,120.758 336.288,122.503C 337.538,124.248 339.321,125.12 341.635,125.12C 343.92,125.12 345.688,124.263 346.938,122.548C 348.188,120.833 348.813,118.255 348.813,114.815 Z "/>
		<path fill="#3D3D3D" fill-opacity="1" stroke-linejoin="round" d="M 277.773,152.773C 277.773,154.303 277.506,155.749 276.971,157.111C 276.436,158.474 275.693,159.638 274.743,160.603C 273.548,161.798 272.143,162.703 270.528,163.318C 268.913,163.933 266.873,164.24 264.408,164.24L 260.493,164.24L 260.493,177.2L 255.693,177.2L 255.693,142.16L 264.476,142.16C 266.546,142.16 268.308,142.334 269.763,142.681C 271.218,143.029 272.503,143.588 273.618,144.358C 274.918,145.258 275.936,146.396 276.671,147.774C 277.406,149.151 277.773,150.818 277.773,152.773 Z M 272.973,152.87C 272.973,151.63 272.767,150.55 272.354,149.63C 271.942,148.71 271.318,147.96 270.483,147.38C 269.753,146.88 268.903,146.525 267.933,146.315C 266.963,146.105 265.756,146 264.311,146L 260.493,146L 260.493,160.4L 263.636,160.4C 265.501,160.4 267.007,160.243 268.154,159.928C 269.302,159.613 270.256,159.053 271.016,158.248C 271.701,157.523 272.198,156.733 272.508,155.878C 272.818,155.023 272.973,154.02 272.973,152.87 Z "/>
		<path fill="#3D3D3D" fill-opacity="1" stroke-linejoin="round" d="M 321.453,142.16L 312.656,177.2L 307.526,177.2L 300.273,148.115L 293.5,177.2L 288.176,177.2L 279.213,142.16L 284.171,142.16L 291.138,170.915L 298.061,142.16L 302.793,142.16L 309.933,171.83L 316.998,142.16L 321.453,142.16 Z "/>
		<path fill="#3D3D3D" fill-opacity="1" stroke-linejoin="round" d="M 329.613,177.2L 325.293,177.2L 325.293,150.8L 329.613,150.8L 329.613,177.2 Z M 329.613,146.96L 324.813,146.96L 324.813,142.16L 329.613,142.16L 329.613,146.96 Z "/>
		<path fill="#3D3D3D" fill-opacity="1" stroke-linejoin="round" d="M 356.973,177.2L 352.653,177.2L 352.653,162.08C 352.653,160.86 352.593,159.723 352.473,158.668C 352.353,157.613 352.125,156.768 351.791,156.133C 351.426,155.468 350.917,154.973 350.264,154.648C 349.612,154.323 348.718,154.16 347.583,154.16C 346.468,154.16 345.317,154.458 344.129,155.053C 342.942,155.648 341.783,156.42 340.653,157.37L 340.653,177.2L 336.333,177.2L 336.333,150.8L 340.653,150.8L 340.653,153.538C 341.978,152.343 343.287,151.428 344.579,150.793C 345.872,150.158 347.236,149.84 348.671,149.84C 351.271,149.84 353.304,150.703 354.772,152.428C 356.239,154.153 356.973,156.65 356.973,159.92L 356.973,177.2 Z "/>
		<path fill="#3D3D3D" fill-opacity="1" stroke-linejoin="round" d="M 370.833,177.68C 368.433,177.68 366.563,176.996 365.223,175.629C 363.883,174.261 363.213,172.1 363.213,169.145L 363.213,154.64L 360.333,154.64L 360.333,150.8L 363.213,150.8L 363.213,143.12L 367.533,143.12L 367.533,150.8L 375.693,150.8L 375.693,154.64L 367.533,154.64L 367.533,167.105C 367.533,168.435 367.557,169.46 367.604,170.18C 367.652,170.9 367.833,171.573 368.148,172.198C 368.413,172.743 368.844,173.152 369.442,173.428C 370.039,173.703 370.851,173.84 371.875,173.84C 372.596,173.84 373.294,173.72 373.972,173.48C 374.649,173.24 375.136,173.04 375.431,172.88L 375.693,172.88L 375.693,176.915C 374.868,177.155 374.031,177.342 373.181,177.478C 372.331,177.613 371.548,177.68 370.833,177.68 Z "/>
		<path fill="#3D3D3D" fill-opacity="1" stroke-linejoin="round" d="M 390.281,177.68C 386.115,177.68 382.883,176.49 380.583,174.11C 378.283,171.73 377.133,168.35 377.133,163.97C 377.133,159.655 378.247,156.221 380.474,153.669C 382.702,151.116 385.618,149.84 389.223,149.84C 390.843,149.84 392.275,150.076 393.52,150.549C 394.766,151.021 395.855,151.763 396.79,152.773C 397.73,153.783 398.449,155.016 398.947,156.474C 399.444,157.931 399.693,159.715 399.693,161.825L 399.693,164.24L 381.453,164.24C 381.453,167.35 382.223,169.728 383.763,171.373C 385.303,173.018 387.433,173.84 390.153,173.84C 391.128,173.84 392.084,173.724 393.022,173.491C 393.959,173.259 394.806,172.96 395.56,172.595C 396.36,172.215 397.036,171.846 397.585,171.489C 398.135,171.131 398.591,170.795 398.95,170.48L 399.213,170.48L 399.213,175.475C 398.698,175.68 398.058,175.935 397.293,176.24C 396.528,176.545 395.843,176.783 395.238,176.953C 394.378,177.188 393.602,177.368 392.909,177.493C 392.217,177.618 391.341,177.68 390.281,177.68 Z M 395.373,160.88C 395.343,159.625 395.202,158.544 394.949,157.636C 394.697,156.729 394.335,155.96 393.865,155.33C 393.345,154.635 392.682,154.106 391.874,153.744C 391.067,153.381 390.065,153.2 388.87,153.2C 387.696,153.2 386.696,153.386 385.87,153.759C 385.045,154.131 384.295,154.673 383.62,155.383C 382.96,156.108 382.458,156.911 382.113,157.794C 381.768,158.676 381.548,159.705 381.453,160.88L 395.373,160.88 Z "/>
		<path fill="#3D3D3D" fill-opacity="1" stroke-linejoin="round" d="M 418.413,155.6L 418.173,155.6C 417.843,155.6 417.492,155.6 417.119,155.6C 416.747,155.6 416.298,155.6 415.773,155.6C 414.573,155.6 413.378,155.858 412.188,156.373C 410.998,156.888 409.873,157.65 408.813,158.66L 408.813,177.2L 404.493,177.2L 404.493,150.8L 408.813,150.8L 408.813,154.723C 410.443,153.288 411.864,152.275 413.077,151.685C 414.289,151.095 415.466,150.8 416.605,150.8C 417.065,150.8 417.411,150.813 417.641,150.838C 417.87,150.863 418.128,150.898 418.413,150.943L 418.413,155.6 Z "/>
	</g>
	<g>
		<path fill="#3D3D3D" fill-opacity="1" stroke-linejoin="round" d="M 344.492,74.3859L 348.119,65.2144L 358.591,65.2144L 353.62,51.3018L 359.836,35.5834L 377.639,82.8518L 364.51,82.8518L 361.468,74.3859L 344.492,74.3859 Z "/>
		<path fill="#3D3D3D" fill-opacity="1" stroke-linejoin="round" d="M 333.291,80.2685L 352.349,33L 339.714,33.0001L 326.677,63.546L 317.406,33.0002L 307.694,33.0002L 297.74,63.546L 290.72,49.6269L 284.368,69.1985L 290.818,80.2685L 303.252,80.2685L 312.247,52.8754L 320.823,80.2685L 333.291,80.2685 Z "/>
		<path fill="#3D3D3D" fill-opacity="1" stroke-linejoin="round" d="M 264.086,64.0422L 271.869,64.0422C 274.226,64.0422 276.326,63.7791 278.167,63.2528L 280.179,57.0522L 285.804,39.7223C 285.376,39.043 284.886,38.4007 284.336,37.7955C 281.448,34.5986 277.223,33.0003 271.66,33.0003L 252.093,33.0003L 252.093,80.2686L 264.086,80.2686L 264.086,64.0422 Z M 274.388,43.8748C 275.516,45.0103 276.08,46.5296 276.08,48.433C 276.08,50.3511 275.584,51.8722 274.592,52.9967C 273.504,54.246 271.501,54.8706 268.584,54.8706L 264.086,54.8706L 264.086,42.1717L 268.617,42.1717C 271.336,42.1717 273.26,42.7394 274.388,43.8748 Z "/>
	</g>
</svg>
