<?xml version="1.0" encoding="utf-8"?>
<!DOCTYPE svg PUBLIC "-//W3C//DTD SVG 1.1//EN" "http://www.w3.org/Graphics/SVG/1.1/DTD/svg11.dtd">
<svg xmlns="http://www.w3.org/2000/svg" xmlns:xlink="http://www.w3.org/1999/xlink" version="1.1" baseProfile="full" width="256" height="256" viewBox="0 0 256.00 256.00" enable-background="new 0 0 256.00 256.00" xml:space="preserve">
	<g>
		<path fill="#B6B6B6" fill-opacity="1" stroke-width="10" stroke-linejoin="round" stroke="#3D3D3D" stroke-opacity="1" d="M 40,68.8026L 216,68.8026C 220.418,68.8026 224,72.3843 224,76.8026L 224,156.803C 224,161.221 220.418,164.803 216,164.803L 40,164.803C 35.5817,164.803 32,161.221 32,156.803L 32,76.8026C 32,72.3843 35.5817,68.8026 40,68.8026 Z "/>
		<rect x="70.0535" y="120.197" fill="#FFFFFF" fill-opacity="1" stroke-width="10" stroke-linejoin="round" stroke="#3D3D3D" stroke-opacity="1" width="115.893" height="108.605"/>
		<path fill="#3D3D3D" fill-opacity="1" stroke-linejoin="round" stroke="#3D3D3D" stroke-opacity="1" d="M 106.741,174.663L 118.586,179.347L 118.586,192.873L 136.556,186.453L 156.857,194.481L 95.8065,217.475L 95.8065,200.518L 106.741,196.588L 106.741,174.663 Z "/>
		<line fill="none" stroke-linejoin="round" stroke="#3D3D3D" stroke-opacity="1" x1="133.87" y1="132.803" x2="160.193" y2="132.803"/>
		<path fill="#7F7F7F" fill-opacity="1" stroke-linejoin="round" d="M 99.1433,160.197L 160.193,184.811L 160.193,168.492L 120.741,151.654L 160.193,139.68L 160.193,132.803L 133.87,132.803L 134.523,133.017L 99.1433,144.094L 99.1433,160.197 Z "/>
		<rect x="63.9999" y="120.272" fill="#5E5E5E" fill-opacity="1" stroke-width="10" stroke-linejoin="round" stroke="#3D3D3D" stroke-opacity="1" width="128" height="12.5305"/>
		<rect x="69.9529" y="27.1975" fill="#FFFFFF" fill-opacity="1" stroke-width="10" stroke-linejoin="round" stroke="#3D3D3D" stroke-opacity="1" width="115.892" height="41.605"/>
		<path fill="#00C800" fill-opacity="1" stroke-width="10" stroke-linejoin="round" stroke="#64FF00" stroke-opacity="1" d="M 60.8914,90.5007C 62.3767,90.5007 63.5807,91.7047 63.5807,93.1899C 63.5807,94.6751 62.3767,95.8791 60.8914,95.8791C 59.4063,95.8791 58.2021,94.6751 58.2021,93.1899C 58.2021,91.7047 59.4063,90.5007 60.8914,90.5007 Z "/>
	</g>
</svg>
